<svg xmlns="http://www.w3.org/2000/svg" viewBox="0 0 880.00 413.57">
  <style>
    .key-bg { fill: #f5f5f5; stroke: #d4d4d4; stroke-width: 1; }
    .key-index { fill: #171717; font-family: ui-monospace, SFMono-Regular, "SF Mono", Menlo, Consolas, "Liberation Mono", monospace; font-weight: 700; text-anchor: middle; dominant-baseline: central; }
    .key-part { font-family: system-ui, -apple-system, BlinkMacSystemFont, "Segoe UI", Roboto, sans-serif; text-anchor: middle; dominant-baseline: central; }
    @media (prefers-color-scheme: dark) {
      .key-bg { fill: #2a2a2a; stroke: #404040; }
      .key-index { fill: #e5e5e5; }
    }
    .key-bg.part-0 { stroke: #f59e0b; }
    .key-part.part-0 { fill: #f59e0b; }
    .key-bg.part-1 { stroke: #14b8a6; }
    .key-part.part-1 { fill: #14b8a6; }
  </style>
  <g>
    <path class="key-bg part-0" d="M 26.00,22.00 L 84.00,22.00 Q 88.00,22.00 88.00,26.00 L 88.00,49.00 Q 88.00,53.00 84.00,53.00 L 26.00,53.00 Q 22.00,53.00 22.00,49.00 L 22.00,26.00 Q 22.00,22.00 26.00,22.00 Z" />
    <path class="key-bg part-0" d="M 96.00,22.00 L 154.00,22.00 Q 158.00,22.00 158.00,26.00 L 158.00,49.00 Q 158.00,53.00 154.00,53.00 L 96.00,53.00 Q 92.00,53.00 92.00,49.00 L 92.00,26.00 Q 92.00,22.00 96.00,22.00 Z" />
    <path class="key-bg part-0" d="M 166.00,22.00 L 224.00,22.00 Q 228.00,22.00 228.00,26.00 L 228.00,49.00 Q 228.00,53.00 224.00,53.00 L 166.00,53.00 Q 162.00,53.00 162.00,49.00 L 162.00,26.00 Q 162.00,22.00 166.00,22.00 Z" />
    <path class="key-bg part-0" d="M 236.00,22.00 L 294.00,22.00 Q 298.00,22.00 298.00,26.00 L 298.00,49.00 Q 298.00,53.00 294.00,53.00 L 236.00,53.00 Q 232.00,53.00 232.00,49.00 L 232.00,26.00 Q 232.00,22.00 236.00,22.00 Z" />
    <path class="key-bg part-0" d="M 306.00,22.00 L 364.00,22.00 Q 368.00,22.00 368.00,26.00 L 368.00,49.00 Q 368.00,53.00 364.00,53.00 L 306.00,53.00 Q 302.00,53.00 302.00,49.00 L 302.00,26.00 Q 302.00,22.00 306.00,22.00 Z" />
    <path class="key-bg part-1" d="M 516.00,22.00 L 574.00,22.00 Q 578.00,22.00 578.00,26.00 L 578.00,49.00 Q 578.00,53.00 574.00,53.00 L 516.00,53.00 Q 512.00,53.00 512.00,49.00 L 512.00,26.00 Q 512.00,22.00 516.00,22.00 Z" />
    <path class="key-bg part-1" d="M 586.00,22.00 L 644.00,22.00 Q 648.00,22.00 648.00,26.00 L 648.00,49.00 Q 648.00,53.00 644.00,53.00 L 586.00,53.00 Q 582.00,53.00 582.00,49.00 L 582.00,26.00 Q 582.00,22.00 586.00,22.00 Z" />
    <path class="key-bg part-1" d="M 656.00,22.00 L 714.00,22.00 Q 718.00,22.00 718.00,26.00 L 718.00,49.00 Q 718.00,53.00 714.00,53.00 L 656.00,53.00 Q 652.00,53.00 652.00,49.00 L 652.00,26.00 Q 652.00,22.00 656.00,22.00 Z" />
    <path class="key-bg part-1" d="M 726.00,22.00 L 784.00,22.00 Q 788.00,22.00 788.00,26.00 L 788.00,49.00 Q 788.00,53.00 784.00,53.00 L 726.00,53.00 Q 722.00,53.00 722.00,49.00 L 722.00,26.00 Q 722.00,22.00 726.00,22.00 Z" />
    <path class="key-bg part-1" d="M 796.00,22.00 L 854.00,22.00 Q 858.00,22.00 858.00,26.00 L 858.00,49.00 Q 858.00,53.00 854.00,53.00 L 796.00,53.00 Q 792.00,53.00 792.00,49.00 L 792.00,26.00 Q 792.00,22.00 796.00,22.00 Z" />
    <path class="key-bg part-0" d="M 26.00,89.90 L 84.00,89.90 Q 88.00,89.90 88.00,93.90 L 88.00,151.90 Q 88.00,155.90 84.00,155.90 L 26.00,155.90 Q 22.00,155.90 22.00,151.90 L 22.00,93.90 Q 22.00,89.90 26.00,89.90 Z" />
    <path class="key-bg part-0" d="M 96.00,72.40 L 154.00,72.40 Q 158.00,72.40 158.00,76.40 L 158.00,134.40 Q 158.00,138.40 154.00,138.40 L 96.00,138.40 Q 92.00,138.40 92.00,134.40 L 92.00,76.40 Q 92.00,72.40 96.00,72.40 Z" />
    <path class="key-bg part-0" d="M 166.00,64.00 L 224.00,64.00 Q 228.00,64.00 228.00,68.00 L 228.00,126.00 Q 228.00,130.00 224.00,130.00 L 166.00,130.00 Q 162.00,130.00 162.00,126.00 L 162.00,68.00 Q 162.00,64.00 166.00,64.00 Z" />
    <path class="key-bg part-0" d="M 236.00,72.40 L 294.00,72.40 Q 298.00,72.40 298.00,76.40 L 298.00,134.40 Q 298.00,138.40 294.00,138.40 L 236.00,138.40 Q 232.00,138.40 232.00,134.40 L 232.00,76.40 Q 232.00,72.40 236.00,72.40 Z" />
    <path class="key-bg part-0" d="M 306.00,80.80 L 364.00,80.80 Q 368.00,80.80 368.00,84.80 L 368.00,142.80 Q 368.00,146.80 364.00,146.80 L 306.00,146.80 Q 302.00,146.80 302.00,142.80 L 302.00,84.80 Q 302.00,80.80 306.00,80.80 Z" />
    <path class="key-bg part-1" d="M 516.00,80.80 L 574.00,80.80 Q 578.00,80.80 578.00,84.80 L 578.00,142.80 Q 578.00,146.80 574.00,146.80 L 516.00,146.80 Q 512.00,146.80 512.00,142.80 L 512.00,84.80 Q 512.00,80.80 516.00,80.80 Z" />
    <path class="key-bg part-1" d="M 586.00,72.40 L 644.00,72.40 Q 648.00,72.40 648.00,76.40 L 648.00,134.40 Q 648.00,138.40 644.00,138.40 L 586.00,138.40 Q 582.00,138.40 582.00,134.40 L 582.00,76.40 Q 582.00,72.40 586.00,72.40 Z" />
    <path class="key-bg part-1" d="M 656.00,64.00 L 714.00,64.00 Q 718.00,64.00 718.00,68.00 L 718.00,126.00 Q 718.00,130.00 714.00,130.00 L 656.00,130.00 Q 652.00,130.00 652.00,126.00 L 652.00,68.00 Q 652.00,64.00 656.00,64.00 Z" />
    <path class="key-bg part-1" d="M 726.00,72.40 L 784.00,72.40 Q 788.00,72.40 788.00,76.40 L 788.00,134.40 Q 788.00,138.40 784.00,138.40 L 726.00,138.40 Q 722.00,138.40 722.00,134.40 L 722.00,76.40 Q 722.00,72.40 726.00,72.40 Z" />
    <path class="key-bg part-1" d="M 796.00,89.90 L 854.00,89.90 Q 858.00,89.90 858.00,93.90 L 858.00,151.90 Q 858.00,155.90 854.00,155.90 L 796.00,155.90 Q 792.00,155.90 792.00,151.90 L 792.00,93.90 Q 792.00,89.90 796.00,89.90 Z" />
    <path class="key-bg part-0" d="M 26.00,159.90 L 84.00,159.90 Q 88.00,159.90 88.00,163.90 L 88.00,221.90 Q 88.00,225.90 84.00,225.90 L 26.00,225.90 Q 22.00,225.90 22.00,221.90 L 22.00,163.90 Q 22.00,159.90 26.00,159.90 Z" />
    <path class="key-bg part-0" d="M 96.00,142.40 L 154.00,142.40 Q 158.00,142.40 158.00,146.40 L 158.00,204.40 Q 158.00,208.40 154.00,208.40 L 96.00,208.40 Q 92.00,208.40 92.00,204.40 L 92.00,146.40 Q 92.00,142.40 96.00,142.40 Z" />
    <path class="key-bg part-0" d="M 166.00,134.00 L 224.00,134.00 Q 228.00,134.00 228.00,138.00 L 228.00,196.00 Q 228.00,200.00 224.00,200.00 L 166.00,200.00 Q 162.00,200.00 162.00,196.00 L 162.00,138.00 Q 162.00,134.00 166.00,134.00 Z" />
    <path class="key-bg part-0" d="M 236.00,142.40 L 294.00,142.40 Q 298.00,142.40 298.00,146.40 L 298.00,204.40 Q 298.00,208.40 294.00,208.40 L 236.00,208.40 Q 232.00,208.40 232.00,204.40 L 232.00,146.40 Q 232.00,142.40 236.00,142.40 Z" />
    <path class="key-bg part-0" d="M 306.00,150.80 L 364.00,150.80 Q 368.00,150.80 368.00,154.80 L 368.00,212.80 Q 368.00,216.80 364.00,216.80 L 306.00,216.80 Q 302.00,216.80 302.00,212.80 L 302.00,154.80 Q 302.00,150.80 306.00,150.80 Z" />
    <path class="key-bg part-1" d="M 516.00,150.80 L 574.00,150.80 Q 578.00,150.80 578.00,154.80 L 578.00,212.80 Q 578.00,216.80 574.00,216.80 L 516.00,216.80 Q 512.00,216.80 512.00,212.80 L 512.00,154.80 Q 512.00,150.80 516.00,150.80 Z" />
    <path class="key-bg part-1" d="M 586.00,142.40 L 644.00,142.40 Q 648.00,142.40 648.00,146.40 L 648.00,204.40 Q 648.00,208.40 644.00,208.40 L 586.00,208.40 Q 582.00,208.40 582.00,204.40 L 582.00,146.40 Q 582.00,142.40 586.00,142.40 Z" />
    <path class="key-bg part-1" d="M 656.00,134.00 L 714.00,134.00 Q 718.00,134.00 718.00,138.00 L 718.00,196.00 Q 718.00,200.00 714.00,200.00 L 656.00,200.00 Q 652.00,200.00 652.00,196.00 L 652.00,138.00 Q 652.00,134.00 656.00,134.00 Z" />
    <path class="key-bg part-1" d="M 726.00,142.40 L 784.00,142.40 Q 788.00,142.40 788.00,146.40 L 788.00,204.40 Q 788.00,208.40 784.00,208.40 L 726.00,208.40 Q 722.00,208.40 722.00,204.40 L 722.00,146.40 Q 722.00,142.40 726.00,142.40 Z" />
    <path class="key-bg part-1" d="M 796.00,159.90 L 854.00,159.90 Q 858.00,159.90 858.00,163.90 L 858.00,221.90 Q 858.00,225.90 854.00,225.90 L 796.00,225.90 Q 792.00,225.90 792.00,221.90 L 792.00,163.90 Q 792.00,159.90 796.00,159.90 Z" />
    <path class="key-bg part-0" d="M 26.00,229.90 L 84.00,229.90 Q 88.00,229.90 88.00,233.90 L 88.00,291.90 Q 88.00,295.90 84.00,295.90 L 26.00,295.90 Q 22.00,295.90 22.00,291.90 L 22.00,233.90 Q 22.00,229.90 26.00,229.90 Z" />
    <path class="key-bg part-0" d="M 96.00,212.40 L 154.00,212.40 Q 158.00,212.40 158.00,216.40 L 158.00,274.40 Q 158.00,278.40 154.00,278.40 L 96.00,278.40 Q 92.00,278.40 92.00,274.40 L 92.00,216.40 Q 92.00,212.40 96.00,212.40 Z" />
    <path class="key-bg part-0" d="M 166.00,204.00 L 224.00,204.00 Q 228.00,204.00 228.00,208.00 L 228.00,266.00 Q 228.00,270.00 224.00,270.00 L 166.00,270.00 Q 162.00,270.00 162.00,266.00 L 162.00,208.00 Q 162.00,204.00 166.00,204.00 Z" />
    <path class="key-bg part-0" d="M 236.00,212.40 L 294.00,212.40 Q 298.00,212.40 298.00,216.40 L 298.00,274.40 Q 298.00,278.40 294.00,278.40 L 236.00,278.40 Q 232.00,278.40 232.00,274.40 L 232.00,216.40 Q 232.00,212.40 236.00,212.40 Z" />
    <path class="key-bg part-0" d="M 306.00,220.80 L 364.00,220.80 Q 368.00,220.80 368.00,224.80 L 368.00,282.80 Q 368.00,286.80 364.00,286.80 L 306.00,286.80 Q 302.00,286.80 302.00,282.80 L 302.00,224.80 Q 302.00,220.80 306.00,220.80 Z" />
    <path class="key-bg part-1" d="M 516.00,220.80 L 574.00,220.80 Q 578.00,220.80 578.00,224.80 L 578.00,282.80 Q 578.00,286.80 574.00,286.80 L 516.00,286.80 Q 512.00,286.80 512.00,282.80 L 512.00,224.80 Q 512.00,220.80 516.00,220.80 Z" />
    <path class="key-bg part-1" d="M 586.00,212.40 L 644.00,212.40 Q 648.00,212.40 648.00,216.40 L 648.00,274.40 Q 648.00,278.40 644.00,278.40 L 586.00,278.40 Q 582.00,278.40 582.00,274.40 L 582.00,216.40 Q 582.00,212.40 586.00,212.40 Z" />
    <path class="key-bg part-1" d="M 656.00,204.00 L 714.00,204.00 Q 718.00,204.00 718.00,208.00 L 718.00,266.00 Q 718.00,270.00 714.00,270.00 L 656.00,270.00 Q 652.00,270.00 652.00,266.00 L 652.00,208.00 Q 652.00,204.00 656.00,204.00 Z" />
    <path class="key-bg part-1" d="M 726.00,212.40 L 784.00,212.40 Q 788.00,212.40 788.00,216.40 L 788.00,274.40 Q 788.00,278.40 784.00,278.40 L 726.00,278.40 Q 722.00,278.40 722.00,274.40 L 722.00,216.40 Q 722.00,212.40 726.00,212.40 Z" />
    <path class="key-bg part-1" d="M 796.00,229.90 L 854.00,229.90 Q 858.00,229.90 858.00,233.90 L 858.00,291.90 Q 858.00,295.90 854.00,295.90 L 796.00,295.90 Q 792.00,295.90 792.00,291.90 L 792.00,233.90 Q 792.00,229.90 796.00,229.90 Z" />
    <path class="key-bg part-0" d="M 201.00,282.40 L 259.00,282.40 Q 263.00,282.40 263.00,286.40 L 263.00,344.40 Q 263.00,348.40 259.00,348.40 L 201.00,348.40 Q 197.00,348.40 197.00,344.40 L 197.00,286.40 Q 197.00,282.40 201.00,282.40 Z" />
    <path class="key-bg part-0" d="M 285.01,285.13 L 341.74,297.19 Q 345.65,298.02 344.82,301.94 L 332.76,358.67 Q 331.93,362.58 328.02,361.75 L 271.28,349.69 Q 267.37,348.86 268.20,344.95 L 280.26,288.21 Q 281.09,284.30 285.01,285.13 Z" />
    <path class="key-bg part-0" d="M 380.98,273.45 L 433.96,297.04 Q 437.61,298.66 435.99,302.32 L 398.16,387.28 Q 396.53,390.93 392.88,389.30 L 339.89,365.71 Q 336.24,364.09 337.87,360.43 L 375.69,275.47 Q 377.32,271.82 380.98,273.45 Z" />
    <path class="key-bg part-1" d="M 446.04,297.04 L 499.02,273.45 Q 502.68,271.82 504.31,275.47 L 542.13,360.43 Q 543.76,364.09 540.11,365.71 L 487.12,389.30 Q 483.47,390.93 481.84,387.28 L 444.01,302.32 Q 442.39,298.66 446.04,297.04 Z" />
    <path class="key-bg part-1" d="M 538.26,297.19 L 594.99,285.13 Q 598.91,284.30 599.74,288.21 L 611.80,344.95 Q 612.63,348.86 608.72,349.69 L 551.98,361.75 Q 548.07,362.58 547.24,358.67 L 535.18,301.94 Q 534.35,298.02 538.26,297.19 Z" />
    <path class="key-bg part-1" d="M 621.00,282.40 L 679.00,282.40 Q 683.00,282.40 683.00,286.40 L 683.00,344.40 Q 683.00,348.40 679.00,348.40 L 621.00,348.40 Q 617.00,348.40 617.00,344.40 L 617.00,286.40 Q 617.00,282.40 621.00,282.40 Z" />
  </g>
  <g>
    <text class="key-index" x="55.00" y="31.76" font-size="12">0</text>
    <text class="key-part part-0" x="55.00" y="44.74" font-size="9">left</text>
    <text class="key-index" x="125.00" y="31.76" font-size="12">1</text>
    <text class="key-part part-0" x="125.00" y="44.74" font-size="9">left</text>
    <text class="key-index" x="195.00" y="31.76" font-size="12">2</text>
    <text class="key-part part-0" x="195.00" y="44.74" font-size="9">left</text>
    <text class="key-index" x="265.00" y="31.76" font-size="12">3</text>
    <text class="key-part part-0" x="265.00" y="44.74" font-size="9">left</text>
    <text class="key-index" x="335.00" y="31.76" font-size="12">4</text>
    <text class="key-part part-0" x="335.00" y="44.74" font-size="9">left</text>
    <text class="key-index" x="545.00" y="31.76" font-size="12">5</text>
    <text class="key-part part-1" x="545.00" y="44.74" font-size="9">right</text>
    <text class="key-index" x="615.00" y="31.76" font-size="12">6</text>
    <text class="key-part part-1" x="615.00" y="44.74" font-size="9">right</text>
    <text class="key-index" x="685.00" y="31.76" font-size="12">7</text>
    <text class="key-part part-1" x="685.00" y="44.74" font-size="9">right</text>
    <text class="key-index" x="755.00" y="31.76" font-size="12">8</text>
    <text class="key-part part-1" x="755.00" y="44.74" font-size="9">right</text>
    <text class="key-index" x="825.00" y="31.76" font-size="12">9</text>
    <text class="key-part part-1" x="825.00" y="44.74" font-size="9">right</text>
    <text class="key-index" x="55.00" y="111.26" font-size="26">10</text>
    <text class="key-part part-0" x="55.00" y="138.54" font-size="18">left</text>
    <text class="key-index" x="125.00" y="93.76" font-size="26">11</text>
    <text class="key-part part-0" x="125.00" y="121.04" font-size="18">left</text>
    <text class="key-index" x="195.00" y="85.36" font-size="26">12</text>
    <text class="key-part part-0" x="195.00" y="112.64" font-size="18">left</text>
    <text class="key-index" x="265.00" y="93.76" font-size="26">13</text>
    <text class="key-part part-0" x="265.00" y="121.04" font-size="18">left</text>
    <text class="key-index" x="335.00" y="102.16" font-size="26">14</text>
    <text class="key-part part-0" x="335.00" y="129.44" font-size="18">left</text>
    <text class="key-index" x="545.00" y="102.16" font-size="26">15</text>
    <text class="key-part part-1" x="545.00" y="129.44" font-size="18">right</text>
    <text class="key-index" x="615.00" y="93.76" font-size="26">16</text>
    <text class="key-part part-1" x="615.00" y="121.04" font-size="18">right</text>
    <text class="key-index" x="685.00" y="85.36" font-size="26">17</text>
    <text class="key-part part-1" x="685.00" y="112.64" font-size="18">right</text>
    <text class="key-index" x="755.00" y="93.76" font-size="26">18</text>
    <text class="key-part part-1" x="755.00" y="121.04" font-size="18">right</text>
    <text class="key-index" x="825.00" y="111.26" font-size="26">19</text>
    <text class="key-part part-1" x="825.00" y="138.54" font-size="18">right</text>
    <text class="key-index" x="55.00" y="181.26" font-size="26">20</text>
    <text class="key-part part-0" x="55.00" y="208.54" font-size="18">left</text>
    <text class="key-index" x="125.00" y="163.76" font-size="26">21</text>
    <text class="key-part part-0" x="125.00" y="191.04" font-size="18">left</text>
    <text class="key-index" x="195.00" y="155.36" font-size="26">22</text>
    <text class="key-part part-0" x="195.00" y="182.64" font-size="18">left</text>
    <text class="key-index" x="265.00" y="163.76" font-size="26">23</text>
    <text class="key-part part-0" x="265.00" y="191.04" font-size="18">left</text>
    <text class="key-index" x="335.00" y="172.16" font-size="26">24</text>
    <text class="key-part part-0" x="335.00" y="199.44" font-size="18">left</text>
    <text class="key-index" x="545.00" y="172.16" font-size="26">25</text>
    <text class="key-part part-1" x="545.00" y="199.44" font-size="18">right</text>
    <text class="key-index" x="615.00" y="163.76" font-size="26">26</text>
    <text class="key-part part-1" x="615.00" y="191.04" font-size="18">right</text>
    <text class="key-index" x="685.00" y="155.36" font-size="26">27</text>
    <text class="key-part part-1" x="685.00" y="182.64" font-size="18">right</text>
    <text class="key-index" x="755.00" y="163.76" font-size="26">28</text>
    <text class="key-part part-1" x="755.00" y="191.04" font-size="18">right</text>
    <text class="key-index" x="825.00" y="181.26" font-size="26">29</text>
    <text class="key-part part-1" x="825.00" y="208.54" font-size="18">right</text>
    <text class="key-index" x="55.00" y="251.26" font-size="26">30</text>
    <text class="key-part part-0" x="55.00" y="278.54" font-size="18">left</text>
    <text class="key-index" x="125.00" y="233.76" font-size="26">31</text>
    <text class="key-part part-0" x="125.00" y="261.04" font-size="18">left</text>
    <text class="key-index" x="195.00" y="225.36" font-size="26">32</text>
    <text class="key-part part-0" x="195.00" y="252.64" font-size="18">left</text>
    <text class="key-index" x="265.00" y="233.76" font-size="26">33</text>
    <text class="key-part part-0" x="265.00" y="261.04" font-size="18">left</text>
    <text class="key-index" x="335.00" y="242.16" font-size="26">34</text>
    <text class="key-part part-0" x="335.00" y="269.44" font-size="18">left</text>
    <text class="key-index" x="545.00" y="242.16" font-size="26">35</text>
    <text class="key-part part-1" x="545.00" y="269.44" font-size="18">right</text>
    <text class="key-index" x="615.00" y="233.76" font-size="26">36</text>
    <text class="key-part part-1" x="615.00" y="261.04" font-size="18">right</text>
    <text class="key-index" x="685.00" y="225.36" font-size="26">37</text>
    <text class="key-part part-1" x="685.00" y="252.64" font-size="18">right</text>
    <text class="key-index" x="755.00" y="233.76" font-size="26">38</text>
    <text class="key-part part-1" x="755.00" y="261.04" font-size="18">right</text>
    <text class="key-index" x="825.00" y="251.26" font-size="26">39</text>
    <text class="key-part part-1" x="825.00" y="278.54" font-size="18">right</text>
    <text class="key-index" x="230.00" y="303.76" font-size="26">40</text>
    <text class="key-part part-0" x="230.00" y="331.04" font-size="18">left</text>
    <text class="key-index" x="306.51" y="311.80" font-size="26" transform="rotate(12 306.51 323.44)">41</text>
    <text class="key-part part-0" x="306.51" y="339.08" font-size="18" transform="rotate(12 306.51 323.44)">left</text>
    <text class="key-index" x="386.93" y="319.73" font-size="26" transform="rotate(24 386.93 331.37)">42</text>
    <text class="key-part part-0" x="386.93" y="347.01" font-size="18" transform="rotate(24 386.93 331.37)">left</text>
    <text class="key-index" x="493.07" y="319.73" font-size="26" transform="rotate(-24 493.07 331.37)">43</text>
    <text class="key-part part-1" x="493.07" y="347.01" font-size="18" transform="rotate(-24 493.07 331.37)">right</text>
    <text class="key-index" x="573.49" y="311.80" font-size="26" transform="rotate(-12 573.49 323.44)">44</text>
    <text class="key-part part-1" x="573.49" y="339.08" font-size="18" transform="rotate(-12 573.49 323.44)">right</text>
    <text class="key-index" x="650.00" y="303.76" font-size="26">45</text>
    <text class="key-part part-1" x="650.00" y="331.04" font-size="18">right</text>
  </g>
</svg>
